<svg version="1.2" xmlns="http://www.w3.org/2000/svg" viewBox="0 0 512 512" width="512" height="512">
	<title>hand-scissors-solid-svg</title>
	<style>
		.s0 { fill: #000000 } 
	</style>
	<path id="Layer" class="s0" d="m293 269.5l65.8-209.5c6.7-21.1 29.1-32.9 50.2-26.2 21.1 6.7 32.8 29.1 26.2 50.2l-64.2 204h0.1l-21.4 67.2c-2.7 8.4 2 17.4 10.4 20.1 8.4 2.7 17.4-2 20.1-10.4l23.7-74.5c19.2 6.3 33.1 24.3 33.1 45.6v45.7c0 32.2-12.8 63.1-35.6 85.9-28.5 28.4-67.1 44.4-107.3 44.4h-113.1c-70.7 0-128-57.3-128-128v-64-32c0-26.5 21.5-48 48-48 12.3 0 23.6 4.6 32.1 12.3 1.9-24.8 22.6-44.3 47.9-44.3 12.3 0 23.5 4.6 32 12.2v-180.2c0-22.1 17.9-40 40-40 22.1 0 40 17.9 40 40z"/>
</svg>